<mxfile host="app.diagrams.net" modified="2021-01-24T07:47:51.840Z" agent="5.0 (Windows NT 10.0; Win64; x64) AppleWebKit/537.36 (KHTML, like Gecko) Chrome/87.0.4280.141 Safari/537.36" etag="7lKA3k7bPDasZ9x32VS2" version="14.2.7" type="github">
  <diagram id="H01228ruvsHQf6nGQqtz" name="Page-1">
    <mxGraphModel dx="1422" dy="762" grid="1" gridSize="10" guides="1" tooltips="1" connect="1" arrows="1" fold="1" page="1" pageScale="1" pageWidth="850" pageHeight="1100" math="0" shadow="0">
      <root>
        <mxCell id="0" />
        <mxCell id="1" parent="0" />
        <mxCell id="Rdm34At9madJAw1x5ZIm-1" value="" style="ellipse;whiteSpace=wrap;html=1;fillColor=#dae8fc;strokeColor=#6c8ebf;" vertex="1" parent="1">
          <mxGeometry x="360" y="270" width="290" height="210" as="geometry" />
        </mxCell>
        <mxCell id="Rdm34At9madJAw1x5ZIm-2" value="" style="ellipse;whiteSpace=wrap;html=1;fillColor=#d5e8d4;strokeColor=#82b366;" vertex="1" parent="1">
          <mxGeometry x="406.25" y="312.5" width="187.5" height="125" as="geometry" />
        </mxCell>
        <mxCell id="Rdm34At9madJAw1x5ZIm-3" value="What" style="ellipse;whiteSpace=wrap;html=1;labelBackgroundColor=none;fillColor=#f8cecc;strokeColor=#b85450;" vertex="1" parent="1">
          <mxGeometry x="455" y="350" width="100" height="50" as="geometry" />
        </mxCell>
        <mxCell id="Rdm34At9madJAw1x5ZIm-6" value="Why" style="text;html=1;strokeColor=none;fillColor=none;align=center;verticalAlign=middle;whiteSpace=wrap;rounded=0;" vertex="1" parent="1">
          <mxGeometry x="485" y="320" width="40" height="20" as="geometry" />
        </mxCell>
        <mxCell id="Rdm34At9madJAw1x5ZIm-8" value="How" style="text;html=1;strokeColor=none;fillColor=none;align=center;verticalAlign=middle;whiteSpace=wrap;rounded=0;" vertex="1" parent="1">
          <mxGeometry x="485" y="280" width="40" height="20" as="geometry" />
        </mxCell>
      </root>
    </mxGraphModel>
  </diagram>
</mxfile>
